<svg xmlns="http://www.w3.org/2000/svg" data-name="Layer 1" viewBox="0 0 64 80" x="0px" y="0px"><title>Artboard 9</title><path d="M61,33.25H59.35L49.7,30.43h0A4.19,4.19,0,0,0,48.23,30l0,0-2.92-.85h-.07l-.07,0H32.44a2.17,2.17,0,0,1-2.17-2.18V26a.5.5,0,0,0-.5-.5H23.39a.43.43,0,0,0-.19,0L12.19,30h-.12L11,25.88a.48.48,0,0,0-.48-.38H4.83a.49.49,0,0,0-.39.19.5.5,0,0,0-.09.44l1,3.89H3a.51.51,0,0,0-.4.19.53.53,0,0,0-.08.44L2.87,32l.36,1.36a.5.5,0,0,0,.48.38H7.58a3.87,3.87,0,0,0,0,.49,4.26,4.26,0,0,0,4.24,4.27,4.19,4.19,0,0,0,2.68-1h28a.57.57,0,0,0,.18,0h0a.57.57,0,0,0,.13-.08l0,0,.08-.12,0,0a.17.17,0,0,0,0-.07A.27.27,0,0,0,43,37h0a.44.44,0,0,0,0-.1s0,0,0-.08a3,3,0,0,1-.23-1.19,3.26,3.26,0,0,1,.89-2.24,4.49,4.49,0,0,0-.08.83,4.23,4.23,0,0,0,8.45.33l2,.58v1.44a.5.5,0,0,0,.5.5H61a.5.5,0,0,0,.5-.5V33.75A.5.5,0,0,0,61,33.25ZM3.84,31.75,3.65,31h2l.45,1.72h-2Zm3.25,1L5.48,26.5h4.65L11,30a4.27,4.27,0,0,0-3.23,2.72Zm1.44,1.49a3.24,3.24,0,1,1,3.24,3.27A3.26,3.26,0,0,1,8.53,34.23Zm33.2,1.41a4.14,4.14,0,0,0,.1.87H15.34A4.23,4.23,0,0,0,16,34.23a4.28,4.28,0,0,0-2.29-3.78l9.77-3.95h5.78v.43a3.17,3.17,0,0,0,3.17,3.18H45.08l.89.26a4.38,4.38,0,0,0-1.6,1.33A4.28,4.28,0,0,0,41.73,35.64Zm6.05,1.86A3.28,3.28,0,1,1,51,34.23,3.26,3.26,0,0,1,47.78,37.5Zm4.17-4A4.39,4.39,0,0,0,51.36,32l4.43,1.3H54.45a.51.51,0,0,0-.5.5v.35Zm8.55,2.57H55V34.25H60.5Z"/><path d="M11.77,32.29a1.94,1.94,0,1,0,1.92,1.94A1.94,1.94,0,0,0,11.77,32.29Zm0,2.87a.94.94,0,1,1,.92-.93A.93.93,0,0,1,11.77,35.16Z"/><path d="M47.78,32.29a1.94,1.94,0,1,0,1.92,1.94A1.94,1.94,0,0,0,47.78,32.29Zm0,2.87a.94.94,0,1,1,.92-.93A.93.93,0,0,1,47.78,35.16Z"/><path d="M33.3,32.6a.5.5,0,0,0,.5-.5.51.51,0,0,0-.5-.5H32a.51.51,0,0,0-.5.5v3.42a.5.5,0,0,0,.5.5H33.3a.5.5,0,0,0,0-1h-.77V32.6Z"/><path d="M36.1,32.6a.5.5,0,0,0,.5-.5.5.5,0,0,0-.5-.5H34.84a.5.5,0,0,0-.5.5v3.42a.5.5,0,0,0,.5.5H36.1a.5.5,0,0,0,0-1h-.76V32.6Z"/><path d="M38.91,32.6a.5.5,0,0,0,.5-.5.51.51,0,0,0-.5-.5H37.65a.5.5,0,0,0-.5.5v3.42a.5.5,0,0,0,.5.5h1.26a.5.5,0,0,0,0-1h-.76V32.6Z"/><text x="0" y="79" fill="#000000" font-size="5px" font-weight="bold" font-family="'Helvetica Neue', Helvetica, Arial-Unicode, Arial, Sans-serif">Created by arief faisal</text><text x="0" y="84" fill="#000000" font-size="5px" font-weight="bold" font-family="'Helvetica Neue', Helvetica, Arial-Unicode, Arial, Sans-serif">from the Noun Project</text></svg>